{
	"asset":{
		"generator":"Khronos glTF Blender I/O v4.0.44",
		"version":"2.0"
	},
	"scene":0,
	"scenes":[
		{
			"name":"Scene",
			"nodes":[
				0
			]
		}
	],
	"nodes":[
		{
			"mesh":0,
			"name":"Plane",
			"scale":[
				42.5,
				1,
				42.5
			]
		}
	],
	"meshes":[
		{
			"name":"Plane",
			"primitives":[
				{
					"attributes":{
						"POSITION":0,
						"NORMAL":1,
						"TEXCOORD_0":2
					},
					"indices":3
				}
			]
		}
	],
	"accessors":[
		{
			"bufferView":0,
			"componentType":5126,
			"count":25341,
			"max":[
				1.0000020265579224,
				13.228099822998047,
				1
			],
			"min":[
				-1,
				0,
				-1
			],
			"type":"VEC3"
		},
		{
			"bufferView":1,
			"componentType":5126,
			"count":25341,
			"type":"VEC3"
		},
		{
			"bufferView":2,
			"componentType":5126,
			"count":25341,
			"type":"VEC2"
		},
		{
			"bufferView":3,
			"componentType":5123,
			"count":81360,
			"type":"SCALAR"
		}
	],
	"bufferViews":[
		{
			"buffer":0,
			"byteLength":304092,
			"byteOffset":0,
			"target":34962
		},
		{
			"buffer":0,
			"byteLength":304092,
			"byteOffset":304092,
			"target":34962
		},
		{
			"buffer":0,
			"byteLength":202728,
			"byteOffset":608184,
			"target":34962
		},
		{
			"buffer":0,
			"byteLength":162720,
			"byteOffset":810912,
			"target":34963
		}
	],
	"buffers":[
		{
			"byteLength":973632,
			"uri":"portal.bin"
		}
	]
}
